# xmcd
#
# Track frame offsets: 
#        183
#        12658
#        24455
#        40410
#        51733
#        70120
#        83300
#        94970
#        107725
#        120155
#        130838
#        141028
#        152640
#        166638
#        180123
#        195273
#        207695
#        221043
#        235775
#        252038
#        264748
#        282075
#
# Disc length: 3942 seconds
#
# Revision: 5
# Processed by: cddbd v1.5.2PL0 Copyright (c) Steve Scherf et al.
# Submitted via: ExactAudioCopy v1.3
#
DISCID=2a0f6416
DTITLE=John Lee Hooker - The Best Of John Lee Hooker
DYEAR=1991
DGENRE=Blues
TTITLE0=I'm In The Mood (1959)
TTITLE1=Boogie Chillun (1959)
TTITLE2=It Serves Me Right To Suffer (1964)
TTITLE3=This Is Hip (1963)
TTITLE4=House Rent Boogie (1958)
TTITLE5=I'm So Excited (1957)
TTITLE6=I Love You Honey (1958)
TTITLE7=Hobo Blues (1959)
TTITLE8=Crawlin' Kingsnake (1959)
TTITLE9=Maudie (1959)
TTITLE10=Dimples (1956)
TTITLE11=Boom Boom (1961)
TTITLE12=Louise (1951)
TTITLE13=Ground Hog Blues (1951)
TTITLE14=Ramblin' By Myself (1951)
TTITLE15=Walkin' The Boogie (1952)
TTITLE16=One Bourbon, One Scotch, One Beer (1966)
TTITLE17=Sugar Mama (1952)
TTITLE18=Peace Lovin' Man (1960)
TTITLE19=Leave My Wife Alone (1951)
TTITLE20=Blues Before Sunrise (1961)
TTITLE21=Time Is Marching (1955)
EXTD=
EXTT0=
EXTT1=
EXTT2=
EXTT3=
EXTT4=
EXTT5=
EXTT6=
EXTT7=
EXTT8=
EXTT9=
EXTT10=
EXTT11=
EXTT12=
EXTT13=
EXTT14=
EXTT15=
EXTT16=
EXTT17=
EXTT18=
EXTT19=
EXTT20=
EXTT21=
PLAYORDER=
